<svg width="726" height="254" viewBox="0 0 726 254" fill="none" xmlns="http://www.w3.org/2000/svg">
<path d="M1 182.592L39.0583 66.5146L92.3398 45.5825L1 182.592Z" fill="#910009" stroke="white" stroke-width="1.5" stroke-linejoin="round"/>
<path d="M197 3.71844L92.3398 45.5825L42.8641 119.796L120.883 114.087L197 3.71844Z" fill="#008B25" stroke="white" stroke-width="1.5" stroke-linejoin="round"/>
<path d="M195.097 118.845L197 3.71844L120.883 113.686L143.718 194.961L195.097 118.845Z" fill="#006ED3" stroke="white" stroke-width="1.5" stroke-linejoin="round"/>
<path d="M194.146 178.786L195.097 118.845L103.757 253L194.146 178.786Z" fill="#F2D057" stroke="white" stroke-width="1.5" stroke-linejoin="round"/>
<path d="M219.832 97.576C212.792 97.896 209.272 95.528 209.272 90.472C209.272 88.232 209.816 86.568 210.904 85.48C211.992 84.392 213.72 83.784 216.088 83.656L219.352 83.464C221.272 83.4 222.712 82.792 223.672 81.64C224.696 80.424 225.208 78.792 225.208 76.744V37.48C225.208 34.856 226.008 32.776 227.608 31.24C229.208 29.64 231.384 28.84 234.136 28.84C236.76 28.84 238.872 29.64 240.472 31.24C242.136 32.776 242.968 34.856 242.968 37.48V76.456C242.968 82.856 241.272 87.848 237.88 91.432C234.552 94.952 229.56 96.936 222.904 97.384L219.832 97.576ZM263.46 97C260.836 97 258.82 96.296 257.412 94.888C256.004 93.48 255.3 91.464 255.3 88.84V37.48C255.3 34.856 256.004 32.84 257.412 31.432C258.82 30.024 260.836 29.32 263.46 29.32H296.676C299.428 29.32 301.508 29.896 302.916 31.048C304.324 32.2 305.028 33.864 305.028 36.04C305.028 40.648 302.244 42.952 296.676 42.952H272.484V55.816H294.756C300.324 55.816 303.108 58.088 303.108 62.632C303.108 64.808 302.404 66.472 300.996 67.624C299.588 68.776 297.508 69.352 294.756 69.352H272.484V83.368H296.676C302.244 83.368 305.028 85.672 305.028 90.28C305.028 92.456 304.324 94.12 302.916 95.272C301.508 96.424 299.428 97 296.676 97H263.46ZM338.274 97.48C335.586 97.48 333.41 96.712 331.746 95.176C330.146 93.576 329.346 91.464 329.346 88.84V43.624H315.81C312.994 43.624 310.882 43.048 309.474 41.896C308.13 40.68 307.457 38.856 307.457 36.424C307.457 33.992 308.13 32.2 309.474 31.048C310.882 29.896 312.994 29.32 315.81 29.32H360.738C363.554 29.32 365.634 29.896 366.978 31.048C368.386 32.2 369.09 33.992 369.09 36.424C369.09 38.856 368.386 40.68 366.978 41.896C365.634 43.048 363.554 43.624 360.738 43.624H347.202V88.84C347.202 91.464 346.37 93.576 344.706 95.176C343.106 96.712 340.962 97.48 338.274 97.48Z" fill="white"/>
<path d="M395.68 97.576C392.032 97.576 388.552 97.072 385.24 96.064C381.976 95.056 379.36 93.664 377.392 91.888C376.48 91.12 376.024 90.136 376.024 88.936C376.024 88.072 376.264 87.352 376.744 86.776C377.224 86.152 377.8 85.84 378.472 85.84C379.144 85.84 379.96 86.152 380.92 86.776C385.192 89.944 390.064 91.528 395.536 91.528C399.376 91.528 402.328 90.808 404.392 89.368C406.456 87.928 407.488 85.864 407.488 83.176C407.488 81.064 406.528 79.48 404.608 78.424C402.688 77.368 399.616 76.36 395.392 75.4C391.36 74.536 388.048 73.552 385.456 72.448C382.864 71.344 380.824 69.856 379.336 67.984C377.896 66.064 377.176 63.64 377.176 60.712C377.176 57.784 377.968 55.192 379.552 52.936C381.184 50.632 383.44 48.856 386.32 47.608C389.2 46.312 392.488 45.664 396.184 45.664C399.592 45.664 402.736 46.144 405.616 47.104C408.496 48.064 410.944 49.48 412.96 51.352C413.92 52.168 414.4 53.152 414.4 54.304C414.4 55.12 414.136 55.84 413.608 56.464C413.128 57.088 412.552 57.4 411.88 57.4C411.256 57.4 410.464 57.088 409.504 56.464C407.296 54.784 405.208 53.584 403.24 52.864C401.32 52.096 398.992 51.712 396.256 51.712C392.56 51.712 389.68 52.48 387.616 54.016C385.552 55.504 384.52 57.592 384.52 60.28C384.52 62.584 385.432 64.336 387.256 65.536C389.08 66.688 392.008 67.744 396.04 68.704C400.264 69.664 403.672 70.672 406.264 71.728C408.904 72.736 410.992 74.152 412.528 75.976C414.112 77.752 414.904 80.056 414.904 82.888C414.904 85.768 414.088 88.336 412.456 90.592C410.872 92.8 408.616 94.528 405.688 95.776C402.808 96.976 399.472 97.576 395.68 97.576ZM427.717 97.36C426.613 97.36 425.725 97.024 425.053 96.352C424.381 95.68 424.045 94.768 424.045 93.616V49.624C424.045 48.52 424.381 47.632 425.053 46.96C425.725 46.24 426.613 45.88 427.717 45.88C428.869 45.88 429.781 46.216 430.453 46.888C431.125 47.56 431.461 48.472 431.461 49.624V93.616C431.461 94.768 431.125 95.68 430.453 96.352C429.829 97.024 428.917 97.36 427.717 97.36ZM460.016 97.576C456.368 97.576 452.888 97.072 449.576 96.064C446.312 95.056 443.696 93.664 441.728 91.888C440.816 91.12 440.36 90.136 440.36 88.936C440.36 88.072 440.6 87.352 441.08 86.776C441.56 86.152 442.136 85.84 442.808 85.84C443.48 85.84 444.296 86.152 445.256 86.776C449.528 89.944 454.4 91.528 459.872 91.528C463.712 91.528 466.664 90.808 468.728 89.368C470.792 87.928 471.824 85.864 471.824 83.176C471.824 81.064 470.864 79.48 468.944 78.424C467.024 77.368 463.952 76.36 459.728 75.4C455.696 74.536 452.384 73.552 449.792 72.448C447.2 71.344 445.16 69.856 443.672 67.984C442.232 66.064 441.512 63.64 441.512 60.712C441.512 57.784 442.304 55.192 443.888 52.936C445.52 50.632 447.776 48.856 450.656 47.608C453.536 46.312 456.824 45.664 460.52 45.664C463.928 45.664 467.072 46.144 469.952 47.104C472.832 48.064 475.28 49.48 477.296 51.352C478.256 52.168 478.736 53.152 478.736 54.304C478.736 55.12 478.472 55.84 477.944 56.464C477.464 57.088 476.888 57.4 476.216 57.4C475.592 57.4 474.8 57.088 473.84 56.464C471.632 54.784 469.544 53.584 467.576 52.864C465.656 52.096 463.328 51.712 460.592 51.712C456.896 51.712 454.016 52.48 451.952 54.016C449.888 55.504 448.856 57.592 448.856 60.28C448.856 62.584 449.768 64.336 451.592 65.536C453.416 66.688 456.344 67.744 460.376 68.704C464.6 69.664 468.008 70.672 470.6 71.728C473.24 72.736 475.328 74.152 476.864 75.976C478.448 77.752 479.24 80.056 479.24 82.888C479.24 85.768 478.424 88.336 476.792 90.592C475.208 92.8 472.952 94.528 470.024 95.776C467.144 96.976 463.808 97.576 460.016 97.576ZM503.166 97.36C502.062 97.36 501.15 97.024 500.43 96.352C499.758 95.632 499.422 94.72 499.422 93.616V52.432H485.022C482.718 52.432 481.566 51.4 481.566 49.336C481.566 48.328 481.854 47.56 482.43 47.032C483.054 46.504 483.918 46.24 485.022 46.24H521.31C522.414 46.24 523.254 46.504 523.83 47.032C524.454 47.56 524.766 48.328 524.766 49.336C524.766 51.4 523.614 52.432 521.31 52.432H506.91V93.616C506.91 94.72 506.574 95.632 505.902 96.352C505.23 97.024 504.318 97.36 503.166 97.36ZM534.592 97C533.44 97 532.528 96.688 531.856 96.064C531.232 95.392 530.92 94.504 530.92 93.4V49.84C530.92 48.736 531.232 47.872 531.856 47.248C532.528 46.576 533.44 46.24 534.592 46.24H561.088C562.192 46.24 563.032 46.504 563.608 47.032C564.232 47.56 564.544 48.304 564.544 49.264C564.544 50.224 564.232 50.968 563.608 51.496C563.032 51.976 562.192 52.216 561.088 52.216H538.192V68.2H559.648C560.752 68.2 561.592 68.464 562.168 68.992C562.792 69.52 563.104 70.264 563.104 71.224C563.104 72.184 562.792 72.928 562.168 73.456C561.592 73.984 560.752 74.248 559.648 74.248H538.192V91.024H561.088C563.392 91.024 564.544 92.008 564.544 93.976C564.544 94.936 564.232 95.68 563.608 96.208C563.032 96.736 562.192 97 561.088 97H534.592ZM618.109 45.88C619.165 45.88 620.029 46.24 620.701 46.96C621.373 47.632 621.709 48.52 621.709 49.624V93.832C621.709 94.936 621.397 95.8 620.773 96.424C620.197 97.048 619.381 97.36 618.325 97.36C617.317 97.36 616.525 97.048 615.949 96.424C615.373 95.8 615.085 94.936 615.085 93.832V60.352L600.973 87.208C600.061 88.888 598.885 89.728 597.445 89.728C596.005 89.728 594.829 88.888 593.917 87.208L579.733 60.64V93.832C579.733 94.936 579.445 95.8 578.869 96.424C578.293 97.048 577.477 97.36 576.421 97.36C575.413 97.36 574.597 97.048 573.973 96.424C573.397 95.752 573.109 94.888 573.109 93.832V49.624C573.109 48.52 573.445 47.632 574.117 46.96C574.789 46.24 575.653 45.88 576.709 45.88C578.197 45.88 579.397 46.744 580.309 48.472L597.517 81.376L614.581 48.472C615.493 46.744 616.669 45.88 618.109 45.88ZM678.36 92.68C678.6 93.256 678.72 93.736 678.72 94.12C678.72 95.032 678.336 95.8 677.568 96.424C676.848 97.048 676.032 97.36 675.12 97.36C674.496 97.36 673.896 97.192 673.32 96.856C672.792 96.472 672.384 95.944 672.096 95.272L667.344 84.472H640.992L636.24 95.272C635.952 95.944 635.52 96.472 634.944 96.856C634.368 97.192 633.768 97.36 633.144 97.36C632.184 97.36 631.32 97.048 630.552 96.424C629.832 95.8 629.472 95.032 629.472 94.12C629.472 93.736 629.592 93.256 629.832 92.68L650.136 48.256C650.472 47.488 651 46.888 651.72 46.456C652.488 46.024 653.28 45.808 654.096 45.808C654.912 45.808 655.68 46.024 656.4 46.456C657.168 46.888 657.72 47.488 658.056 48.256L678.36 92.68ZM664.752 78.568L654.168 54.736L643.656 78.568H664.752ZM702.735 97.576C699.087 97.576 695.607 97.072 692.295 96.064C689.031 95.056 686.415 93.664 684.447 91.888C683.535 91.12 683.079 90.136 683.079 88.936C683.079 88.072 683.319 87.352 683.799 86.776C684.279 86.152 684.855 85.84 685.527 85.84C686.199 85.84 687.015 86.152 687.975 86.776C692.247 89.944 697.119 91.528 702.591 91.528C706.431 91.528 709.383 90.808 711.447 89.368C713.511 87.928 714.543 85.864 714.543 83.176C714.543 81.064 713.583 79.48 711.663 78.424C709.743 77.368 706.671 76.36 702.447 75.4C698.415 74.536 695.103 73.552 692.511 72.448C689.919 71.344 687.879 69.856 686.391 67.984C684.951 66.064 684.231 63.64 684.231 60.712C684.231 57.784 685.023 55.192 686.607 52.936C688.239 50.632 690.495 48.856 693.375 47.608C696.255 46.312 699.543 45.664 703.239 45.664C706.647 45.664 709.791 46.144 712.671 47.104C715.551 48.064 717.999 49.48 720.015 51.352C720.975 52.168 721.455 53.152 721.455 54.304C721.455 55.12 721.191 55.84 720.663 56.464C720.183 57.088 719.607 57.4 718.935 57.4C718.311 57.4 717.519 57.088 716.559 56.464C714.351 54.784 712.263 53.584 710.295 52.864C708.375 52.096 706.047 51.712 703.311 51.712C699.615 51.712 696.735 52.48 694.671 54.016C692.607 55.504 691.575 57.592 691.575 60.28C691.575 62.584 692.487 64.336 694.311 65.536C696.135 66.688 699.063 67.744 703.095 68.704C707.319 69.664 710.727 70.672 713.319 71.728C715.959 72.736 718.047 74.152 719.583 75.976C721.167 77.752 721.959 80.056 721.959 82.888C721.959 85.768 721.143 88.336 719.511 90.592C717.927 92.8 715.671 94.528 712.743 95.776C709.863 96.976 706.527 97.576 702.735 97.576Z" fill="white"/>
<path d="M218.724 155.14C218.295 155.14 217.949 155.009 217.688 154.748C217.427 154.487 217.296 154.132 217.296 153.684V136.66C217.296 136.231 217.417 135.895 217.66 135.652C217.921 135.391 218.276 135.26 218.724 135.26H225.472C227.563 135.26 229.187 135.773 230.344 136.8C231.501 137.827 232.08 139.283 232.08 141.168C232.08 143.035 231.501 144.491 230.344 145.536C229.187 146.581 227.563 147.104 225.472 147.104H220.18V153.684C220.18 154.132 220.049 154.487 219.788 154.748C219.545 155.009 219.191 155.14 218.724 155.14ZM225.164 144.78C227.927 144.78 229.308 143.576 229.308 141.168C229.308 138.779 227.927 137.584 225.164 137.584H220.18V144.78H225.164ZM250.962 153.208C251.13 153.451 251.214 153.712 251.214 153.992C251.214 154.328 251.074 154.617 250.794 154.86C250.532 155.084 250.224 155.196 249.87 155.196C249.347 155.196 248.927 154.963 248.61 154.496L244.858 148.672C244.428 148 243.971 147.533 243.486 147.272C243 146.992 242.366 146.852 241.582 146.852H238.418V153.684C238.418 154.132 238.287 154.487 238.026 154.748C237.783 155.009 237.438 155.14 236.99 155.14C236.56 155.14 236.215 155.009 235.954 154.748C235.692 154.487 235.562 154.132 235.562 153.684V136.66C235.562 136.231 235.683 135.895 235.926 135.652C236.187 135.391 236.542 135.26 236.99 135.26H243.962C246.146 135.26 247.807 135.745 248.946 136.716C250.103 137.687 250.682 139.105 250.682 140.972C250.682 142.521 250.243 143.781 249.366 144.752C248.488 145.704 247.238 146.311 245.614 146.572C246.099 146.703 246.538 146.936 246.93 147.272C247.322 147.608 247.704 148.075 248.078 148.672L250.962 153.208ZM243.626 144.528C245.082 144.528 246.155 144.248 246.846 143.688C247.555 143.109 247.91 142.223 247.91 141.028C247.91 139.833 247.564 138.965 246.874 138.424C246.183 137.864 245.1 137.584 243.626 137.584H238.39V144.528H243.626ZM263.241 155.224C261.374 155.224 259.75 154.813 258.369 153.992C257.006 153.171 255.952 152.004 255.205 150.492C254.458 148.98 254.085 147.197 254.085 145.144C254.085 143.072 254.449 141.28 255.177 139.768C255.924 138.237 256.988 137.071 258.369 136.268C259.75 135.447 261.374 135.036 263.241 135.036C265.126 135.036 266.76 135.447 268.141 136.268C269.522 137.071 270.577 138.237 271.305 139.768C272.052 141.28 272.425 143.063 272.425 145.116C272.425 147.169 272.052 148.961 271.305 150.492C270.577 152.004 269.522 153.171 268.141 153.992C266.76 154.813 265.126 155.224 263.241 155.224ZM263.241 152.872C265.22 152.872 266.76 152.2 267.861 150.856C268.962 149.512 269.513 147.599 269.513 145.116C269.513 142.633 268.962 140.729 267.861 139.404C266.778 138.06 265.238 137.388 263.241 137.388C261.281 137.388 259.75 138.06 258.649 139.404C257.566 140.729 257.025 142.633 257.025 145.116C257.025 147.599 257.566 149.512 258.649 150.856C259.75 152.2 261.281 152.872 263.241 152.872ZM274.56 155.14C274 155.177 273.571 155.093 273.272 154.888C272.973 154.683 272.824 154.375 272.824 153.964C272.824 153.236 273.225 152.844 274.028 152.788L274.896 152.732C275.773 152.695 276.427 152.433 276.856 151.948C277.285 151.444 277.5 150.66 277.5 149.596V136.576C277.5 136.147 277.631 135.801 277.892 135.54C278.172 135.26 278.527 135.12 278.956 135.12C279.404 135.12 279.759 135.26 280.02 135.54C280.281 135.801 280.412 136.147 280.412 136.576V149.596C280.412 151.351 279.992 152.685 279.152 153.6C278.331 154.496 277.089 154.991 275.428 155.084L274.56 155.14ZM286.427 155C285.979 155 285.624 154.879 285.363 154.636C285.12 154.375 284.999 154.029 284.999 153.6V136.66C284.999 136.231 285.12 135.895 285.363 135.652C285.624 135.391 285.979 135.26 286.427 135.26H296.731C297.16 135.26 297.487 135.363 297.711 135.568C297.954 135.773 298.075 136.063 298.075 136.436C298.075 136.809 297.954 137.099 297.711 137.304C297.487 137.491 297.16 137.584 296.731 137.584H287.827V143.8H296.171C296.6 143.8 296.927 143.903 297.151 144.108C297.394 144.313 297.515 144.603 297.515 144.976C297.515 145.349 297.394 145.639 297.151 145.844C296.927 146.049 296.6 146.152 296.171 146.152H287.827V152.676H296.731C297.627 152.676 298.075 153.059 298.075 153.824C298.075 154.197 297.954 154.487 297.711 154.692C297.487 154.897 297.16 155 296.731 155H286.427ZM307.374 155.14C306.945 155.14 306.59 155.009 306.31 154.748C306.049 154.468 305.918 154.113 305.918 153.684V137.668H300.318C299.422 137.668 298.974 137.267 298.974 136.464C298.974 136.072 299.086 135.773 299.31 135.568C299.553 135.363 299.889 135.26 300.318 135.26H314.43C314.859 135.26 315.186 135.363 315.41 135.568C315.653 135.773 315.774 136.072 315.774 136.464C315.774 137.267 315.326 137.668 314.43 137.668H308.83V153.684C308.83 154.113 308.699 154.468 308.438 154.748C308.177 155.009 307.822 155.14 307.374 155.14ZM333.204 153.32C333.298 153.544 333.344 153.731 333.344 153.88C333.344 154.235 333.195 154.533 332.896 154.776C332.616 155.019 332.299 155.14 331.944 155.14C331.702 155.14 331.468 155.075 331.244 154.944C331.039 154.795 330.88 154.589 330.768 154.328L328.92 150.128H318.672L316.824 154.328C316.712 154.589 316.544 154.795 316.32 154.944C316.096 155.075 315.863 155.14 315.62 155.14C315.247 155.14 314.911 155.019 314.612 154.776C314.332 154.533 314.192 154.235 314.192 153.88C314.192 153.731 314.239 153.544 314.332 153.32L322.228 136.044C322.359 135.745 322.564 135.512 322.844 135.344C323.143 135.176 323.451 135.092 323.768 135.092C324.086 135.092 324.384 135.176 324.664 135.344C324.963 135.512 325.178 135.745 325.308 136.044L333.204 153.32ZM327.912 147.832L323.796 138.564L319.708 147.832H327.912ZM351.191 135.12C351.601 135.12 351.928 135.26 352.171 135.54C352.432 135.801 352.563 136.147 352.563 136.576V153.684C352.563 154.113 352.432 154.468 352.171 154.748C351.909 155.009 351.573 155.14 351.163 155.14C350.677 155.14 350.304 154.953 350.043 154.58L339.067 140.104V153.684C339.067 154.113 338.936 154.468 338.675 154.748C338.432 155.009 338.105 155.14 337.695 155.14C337.284 155.14 336.957 155.009 336.715 154.748C336.472 154.487 336.351 154.132 336.351 153.684V136.576C336.351 136.147 336.481 135.801 336.743 135.54C337.004 135.26 337.34 135.12 337.751 135.12C338.236 135.12 338.609 135.307 338.871 135.68L349.847 150.184V136.576C349.847 136.147 349.968 135.801 350.211 135.54C350.453 135.26 350.78 135.12 351.191 135.12ZM358.587 155C358.139 155 357.785 154.879 357.523 154.636C357.281 154.375 357.159 154.029 357.159 153.6V136.66C357.159 136.231 357.281 135.895 357.523 135.652C357.785 135.391 358.139 135.26 358.587 135.26H364.075C367.267 135.26 369.741 136.119 371.495 137.836C373.25 139.553 374.127 141.98 374.127 145.116C374.127 148.252 373.25 150.688 371.495 152.424C369.741 154.141 367.267 155 364.075 155H358.587ZM363.907 152.592C368.761 152.592 371.187 150.1 371.187 145.116C371.187 140.151 368.761 137.668 363.907 137.668H360.043V152.592H363.907ZM386.534 155.224C384.667 155.224 383.043 154.813 381.662 153.992C380.299 153.171 379.245 152.004 378.498 150.492C377.751 148.98 377.378 147.197 377.378 145.144C377.378 143.072 377.742 141.28 378.47 139.768C379.217 138.237 380.281 137.071 381.662 136.268C383.043 135.447 384.667 135.036 386.534 135.036C388.419 135.036 390.053 135.447 391.434 136.268C392.815 137.071 393.87 138.237 394.598 139.768C395.345 141.28 395.718 143.063 395.718 145.116C395.718 147.169 395.345 148.961 394.598 150.492C393.87 152.004 392.815 153.171 391.434 153.992C390.053 154.813 388.419 155.224 386.534 155.224ZM386.534 152.872C388.513 152.872 390.053 152.2 391.154 150.856C392.255 149.512 392.806 147.599 392.806 145.116C392.806 142.633 392.255 140.729 391.154 139.404C390.071 138.06 388.531 137.388 386.534 137.388C384.574 137.388 383.043 138.06 381.942 139.404C380.859 140.729 380.318 142.633 380.318 145.116C380.318 147.599 380.859 149.512 381.942 150.856C383.043 152.2 384.574 152.872 386.534 152.872ZM413.558 155.224C412.14 155.224 410.786 155.028 409.498 154.636C408.229 154.244 407.212 153.703 406.446 153.012C406.092 152.713 405.914 152.331 405.914 151.864C405.914 151.528 406.008 151.248 406.194 151.024C406.381 150.781 406.605 150.66 406.866 150.66C407.128 150.66 407.445 150.781 407.818 151.024C409.48 152.256 411.374 152.872 413.502 152.872C414.996 152.872 416.144 152.592 416.946 152.032C417.749 151.472 418.15 150.669 418.15 149.624C418.15 148.803 417.777 148.187 417.03 147.776C416.284 147.365 415.089 146.973 413.446 146.6C411.878 146.264 410.59 145.881 409.582 145.452C408.574 145.023 407.781 144.444 407.202 143.716C406.642 142.969 406.362 142.027 406.362 140.888C406.362 139.749 406.67 138.741 407.286 137.864C407.921 136.968 408.798 136.277 409.918 135.792C411.038 135.288 412.317 135.036 413.754 135.036C415.08 135.036 416.302 135.223 417.422 135.596C418.542 135.969 419.494 136.52 420.278 137.248C420.652 137.565 420.838 137.948 420.838 138.396C420.838 138.713 420.736 138.993 420.53 139.236C420.344 139.479 420.12 139.6 419.858 139.6C419.616 139.6 419.308 139.479 418.934 139.236C418.076 138.583 417.264 138.116 416.498 137.836C415.752 137.537 414.846 137.388 413.782 137.388C412.345 137.388 411.225 137.687 410.422 138.284C409.62 138.863 409.218 139.675 409.218 140.72C409.218 141.616 409.573 142.297 410.282 142.764C410.992 143.212 412.13 143.623 413.698 143.996C415.341 144.369 416.666 144.761 417.674 145.172C418.701 145.564 419.513 146.115 420.11 146.824C420.726 147.515 421.034 148.411 421.034 149.512C421.034 150.632 420.717 151.631 420.082 152.508C419.466 153.367 418.589 154.039 417.45 154.524C416.33 154.991 415.033 155.224 413.558 155.224ZM433.073 155.224C431.206 155.224 429.582 154.813 428.201 153.992C426.838 153.171 425.784 152.004 425.037 150.492C424.29 148.98 423.917 147.197 423.917 145.144C423.917 143.072 424.281 141.28 425.009 139.768C425.756 138.237 426.82 137.071 428.201 136.268C429.582 135.447 431.206 135.036 433.073 135.036C434.958 135.036 436.592 135.447 437.973 136.268C439.354 137.071 440.409 138.237 441.137 139.768C441.884 141.28 442.257 143.063 442.257 145.116C442.257 147.169 441.884 148.961 441.137 150.492C440.409 152.004 439.354 153.171 437.973 153.992C436.592 154.813 434.958 155.224 433.073 155.224ZM433.073 152.872C435.052 152.872 436.592 152.2 437.693 150.856C438.794 149.512 439.345 147.599 439.345 145.116C439.345 142.633 438.794 140.729 437.693 139.404C436.61 138.06 435.07 137.388 433.073 137.388C431.113 137.388 429.582 138.06 428.481 139.404C427.398 140.729 426.857 142.633 426.857 145.116C426.857 147.599 427.398 149.512 428.481 150.856C429.582 152.2 431.113 152.872 433.073 152.872ZM447.591 155C447.161 155 446.816 154.879 446.555 154.636C446.312 154.393 446.191 154.067 446.191 153.656V136.576C446.191 136.147 446.321 135.801 446.583 135.54C446.844 135.26 447.189 135.12 447.619 135.12C448.067 135.12 448.421 135.251 448.683 135.512C448.944 135.773 449.075 136.128 449.075 136.576V152.592H457.587C458.016 152.592 458.343 152.695 458.567 152.9C458.809 153.105 458.931 153.404 458.931 153.796C458.931 154.188 458.809 154.487 458.567 154.692C458.343 154.897 458.016 155 457.587 155H447.591ZM468.633 155.224C466.001 155.224 464.004 154.543 462.641 153.18C461.279 151.817 460.597 149.811 460.597 147.16V136.576C460.597 136.128 460.728 135.773 460.989 135.512C461.251 135.251 461.596 135.12 462.025 135.12C462.455 135.12 462.8 135.251 463.061 135.512C463.323 135.773 463.453 136.128 463.453 136.576V147.356C463.453 149.167 463.883 150.539 464.741 151.472C465.619 152.405 466.916 152.872 468.633 152.872C470.332 152.872 471.62 152.405 472.497 151.472C473.375 150.539 473.813 149.167 473.813 147.356V136.576C473.813 136.147 473.944 135.801 474.205 135.54C474.467 135.26 474.812 135.12 475.241 135.12C475.671 135.12 476.016 135.251 476.277 135.512C476.539 135.773 476.669 136.128 476.669 136.576V147.16C476.669 149.792 475.979 151.799 474.597 153.18C473.235 154.543 471.247 155.224 468.633 155.224ZM495.669 150.66C495.93 150.66 496.154 150.781 496.341 151.024C496.527 151.248 496.621 151.528 496.621 151.864C496.621 152.331 496.443 152.704 496.089 152.984C495.342 153.656 494.465 154.179 493.457 154.552C492.467 154.925 491.413 155.14 490.293 155.196L490.153 156.232C490.414 156.176 490.647 156.148 490.853 156.148C491.431 156.148 491.917 156.316 492.309 156.652C492.719 156.988 492.925 157.464 492.925 158.08C492.925 158.771 492.626 159.331 492.029 159.76C491.431 160.208 490.582 160.432 489.481 160.432C488.753 160.432 488.109 160.329 487.549 160.124C487.213 159.993 487.044 159.76 487.044 159.424C487.044 159.2 487.119 159.013 487.269 158.864C487.437 158.715 487.651 158.677 487.913 158.752C488.473 158.901 488.995 158.976 489.481 158.976C489.966 158.976 490.339 158.901 490.601 158.752C490.862 158.603 490.993 158.379 490.993 158.08C490.993 157.856 490.918 157.679 490.769 157.548C490.638 157.436 490.442 157.38 490.181 157.38C489.994 157.38 489.742 157.417 489.425 157.492C489.107 157.567 488.911 157.604 488.837 157.604C488.687 157.604 488.547 157.548 488.417 157.436C488.305 157.343 488.258 157.212 488.277 157.044L488.501 155.168C486.839 155 485.402 154.487 484.189 153.628C482.975 152.769 482.042 151.621 481.389 150.184C480.754 148.728 480.437 147.039 480.437 145.116C480.437 143.063 480.81 141.28 481.557 139.768C482.303 138.237 483.377 137.071 484.777 136.268C486.177 135.447 487.819 135.036 489.705 135.036C490.937 135.036 492.103 135.232 493.204 135.624C494.306 135.997 495.267 136.548 496.089 137.276C496.443 137.556 496.621 137.929 496.621 138.396C496.621 138.732 496.527 139.021 496.341 139.264C496.154 139.488 495.93 139.6 495.669 139.6C495.351 139.6 495.043 139.479 494.745 139.236C493.849 138.564 493.027 138.097 492.281 137.836C491.553 137.556 490.722 137.416 489.789 137.416C487.735 137.416 486.158 138.079 485.057 139.404C483.955 140.729 483.405 142.633 483.405 145.116C483.405 147.617 483.955 149.531 485.057 150.856C486.158 152.181 487.735 152.844 489.789 152.844C490.685 152.844 491.497 152.704 492.225 152.424C492.971 152.144 493.811 151.677 494.745 151.024C495.118 150.781 495.426 150.66 495.669 150.66ZM508.214 155.224C506.347 155.224 504.723 154.813 503.342 153.992C501.979 153.171 500.924 152.004 500.178 150.492C499.431 148.98 499.058 147.197 499.058 145.144C499.058 143.072 499.422 141.28 500.15 139.768C500.896 138.237 501.96 137.071 503.342 136.268C504.723 135.447 506.347 135.036 508.214 135.036C510.099 135.036 511.732 135.447 513.114 136.268C514.495 137.071 515.55 138.237 516.278 139.768C517.024 141.28 517.398 143.063 517.398 145.116C517.398 147.169 517.024 148.961 516.278 150.492C515.55 152.004 514.495 153.171 513.114 153.992C511.732 154.813 510.099 155.224 508.214 155.224ZM508.214 152.872C510.192 152.872 511.732 152.2 512.834 150.856C513.935 149.512 514.486 147.599 514.486 145.116C514.486 142.633 513.935 140.729 512.834 139.404C511.751 138.06 510.211 137.388 508.214 137.388C506.254 137.388 504.723 138.06 503.622 139.404C502.539 140.729 501.998 142.633 501.998 145.116C501.998 147.599 502.539 149.512 503.622 150.856C504.723 152.2 506.254 152.872 508.214 152.872ZM510.23 132.936C509.912 132.936 509.576 132.889 509.222 132.796C508.886 132.684 508.484 132.535 508.018 132.348C507.215 132.031 506.618 131.872 506.226 131.872C505.946 131.872 505.722 131.928 505.554 132.04C505.386 132.152 505.227 132.311 505.078 132.516C505.04 132.553 504.975 132.619 504.882 132.712C504.807 132.787 504.723 132.852 504.63 132.908C504.555 132.945 504.471 132.964 504.378 132.964C504.172 132.964 504.004 132.889 503.874 132.74C503.743 132.591 503.678 132.404 503.678 132.18C503.678 131.844 503.78 131.499 503.986 131.144C504.21 130.771 504.508 130.463 504.882 130.22C505.274 129.977 505.712 129.856 506.198 129.856C506.515 129.856 506.842 129.912 507.178 130.024C507.532 130.117 507.943 130.257 508.41 130.444C509.212 130.761 509.81 130.92 510.202 130.92C510.482 130.92 510.706 130.864 510.874 130.752C511.042 130.64 511.2 130.491 511.35 130.304C511.499 130.136 511.62 130.024 511.714 129.968C511.807 129.893 511.919 129.856 512.05 129.856C512.255 129.856 512.423 129.931 512.554 130.08C512.684 130.211 512.75 130.388 512.75 130.612C512.75 130.948 512.638 131.303 512.414 131.676C512.208 132.031 511.91 132.329 511.518 132.572C511.144 132.815 510.715 132.936 510.23 132.936ZM522.759 155C522.311 155 521.956 154.879 521.695 154.636C521.452 154.375 521.331 154.029 521.331 153.6V136.66C521.331 136.231 521.452 135.895 521.695 135.652C521.956 135.391 522.311 135.26 522.759 135.26H533.063C533.492 135.26 533.819 135.363 534.043 135.568C534.286 135.773 534.407 136.063 534.407 136.436C534.407 136.809 534.286 137.099 534.043 137.304C533.819 137.491 533.492 137.584 533.063 137.584H524.159V143.8H532.503C532.932 143.8 533.259 143.903 533.483 144.108C533.726 144.313 533.847 144.603 533.847 144.976C533.847 145.349 533.726 145.639 533.483 145.844C533.259 146.049 532.932 146.152 532.503 146.152H524.159V152.676H533.063C533.959 152.676 534.407 153.059 534.407 153.824C534.407 154.197 534.286 154.487 534.043 154.692C533.819 154.897 533.492 155 533.063 155H522.759ZM543.961 155.224C542.542 155.224 541.189 155.028 539.901 154.636C538.631 154.244 537.614 153.703 536.849 153.012C536.494 152.713 536.317 152.331 536.317 151.864C536.317 151.528 536.41 151.248 536.597 151.024C536.783 150.781 537.007 150.66 537.269 150.66C537.53 150.66 537.847 150.781 538.221 151.024C539.882 152.256 541.777 152.872 543.905 152.872C545.398 152.872 546.546 152.592 547.349 152.032C548.151 151.472 548.553 150.669 548.553 149.624C548.553 148.803 548.179 148.187 547.433 147.776C546.686 147.365 545.491 146.973 543.849 146.6C542.281 146.264 540.993 145.881 539.985 145.452C538.977 145.023 538.183 144.444 537.605 143.716C537.045 142.969 536.765 142.027 536.765 140.888C536.765 139.749 537.073 138.741 537.689 137.864C538.323 136.968 539.201 136.277 540.321 135.792C541.441 135.288 542.719 135.036 544.157 135.036C545.482 135.036 546.705 135.223 547.825 135.596C548.945 135.969 549.897 136.52 550.681 137.248C551.054 137.565 551.241 137.948 551.241 138.396C551.241 138.713 551.138 138.993 550.933 139.236C550.746 139.479 550.522 139.6 550.261 139.6C550.018 139.6 549.71 139.479 549.337 139.236C548.478 138.583 547.666 138.116 546.901 137.836C546.154 137.537 545.249 137.388 544.185 137.388C542.747 137.388 541.627 137.687 540.825 138.284C540.022 138.863 539.621 139.675 539.621 140.72C539.621 141.616 539.975 142.297 540.685 142.764C541.394 143.212 542.533 143.623 544.101 143.996C545.743 144.369 547.069 144.761 548.077 145.172C549.103 145.564 549.915 146.115 550.513 146.824C551.129 147.515 551.437 148.411 551.437 149.512C551.437 150.632 551.119 151.631 550.485 152.508C549.869 153.367 548.991 154.039 547.853 154.524C546.733 154.991 545.435 155.224 543.961 155.224ZM579.902 135.12C580.313 135.12 580.649 135.26 580.91 135.54C581.171 135.801 581.302 136.147 581.302 136.576V153.768C581.302 154.197 581.181 154.533 580.938 154.776C580.714 155.019 580.397 155.14 579.986 155.14C579.594 155.14 579.286 155.019 579.062 154.776C578.838 154.533 578.726 154.197 578.726 153.768V140.748L573.238 151.192C572.883 151.845 572.426 152.172 571.866 152.172C571.306 152.172 570.849 151.845 570.494 151.192L564.978 140.86V153.768C564.978 154.197 564.866 154.533 564.642 154.776C564.418 155.019 564.101 155.14 563.69 155.14C563.298 155.14 562.981 155.019 562.738 154.776C562.514 154.515 562.402 154.179 562.402 153.768V136.576C562.402 136.147 562.533 135.801 562.794 135.54C563.055 135.26 563.391 135.12 563.802 135.12C564.381 135.12 564.847 135.456 565.202 136.128L571.894 148.924L578.53 136.128C578.885 135.456 579.342 135.12 579.902 135.12ZM594.401 155.224C592.534 155.224 590.91 154.813 589.529 153.992C588.166 153.171 587.112 152.004 586.365 150.492C585.618 148.98 585.245 147.197 585.245 145.144C585.245 143.072 585.609 141.28 586.337 139.768C587.084 138.237 588.148 137.071 589.529 136.268C590.91 135.447 592.534 135.036 594.401 135.036C596.286 135.036 597.92 135.447 599.301 136.268C600.682 137.071 601.737 138.237 602.465 139.768C603.212 141.28 603.585 143.063 603.585 145.116C603.585 147.169 603.212 148.961 602.465 150.492C601.737 152.004 600.682 153.171 599.301 153.992C597.92 154.813 596.286 155.224 594.401 155.224ZM594.401 152.872C596.38 152.872 597.92 152.2 599.021 150.856C600.122 149.512 600.673 147.599 600.673 145.116C600.673 142.633 600.122 140.729 599.021 139.404C597.938 138.06 596.398 137.388 594.401 137.388C592.441 137.388 590.91 138.06 589.809 139.404C588.726 140.729 588.185 142.633 588.185 145.116C588.185 147.599 588.726 149.512 589.809 150.856C590.91 152.2 592.441 152.872 594.401 152.872ZM608.947 155C608.499 155 608.144 154.879 607.883 154.636C607.64 154.375 607.519 154.029 607.519 153.6V136.66C607.519 136.231 607.64 135.895 607.883 135.652C608.144 135.391 608.499 135.26 608.947 135.26H614.435C617.627 135.26 620.1 136.119 621.855 137.836C623.609 139.553 624.487 141.98 624.487 145.116C624.487 148.252 623.609 150.688 621.855 152.424C620.1 154.141 617.627 155 614.435 155H608.947ZM614.267 152.592C619.12 152.592 621.547 150.1 621.547 145.116C621.547 140.151 619.12 137.668 614.267 137.668H610.403V152.592H614.267ZM629.837 155C629.389 155 629.035 154.879 628.773 154.636C628.531 154.375 628.409 154.029 628.409 153.6V136.66C628.409 136.231 628.531 135.895 628.773 135.652C629.035 135.391 629.389 135.26 629.837 135.26H640.141C640.571 135.26 640.897 135.363 641.121 135.568C641.364 135.773 641.485 136.063 641.485 136.436C641.485 136.809 641.364 137.099 641.121 137.304C640.897 137.491 640.571 137.584 640.141 137.584H631.237V143.8H639.581C640.011 143.8 640.337 143.903 640.561 144.108C640.804 144.313 640.925 144.603 640.925 144.976C640.925 145.349 640.804 145.639 640.561 145.844C640.337 146.049 640.011 146.152 639.581 146.152H631.237V152.676H640.141C641.037 152.676 641.485 153.059 641.485 153.824C641.485 154.197 641.364 154.487 641.121 154.692C640.897 154.897 640.571 155 640.141 155H629.837ZM660.188 153.208C660.356 153.451 660.44 153.712 660.44 153.992C660.44 154.328 660.3 154.617 660.02 154.86C659.759 155.084 659.451 155.196 659.096 155.196C658.574 155.196 658.154 154.963 657.836 154.496L654.084 148.672C653.655 148 653.198 147.533 652.712 147.272C652.227 146.992 651.592 146.852 650.808 146.852H647.644V153.684C647.644 154.132 647.514 154.487 647.252 154.748C647.01 155.009 646.664 155.14 646.216 155.14C645.787 155.14 645.442 155.009 645.18 154.748C644.919 154.487 644.788 154.132 644.788 153.684V136.66C644.788 136.231 644.91 135.895 645.152 135.652C645.414 135.391 645.768 135.26 646.216 135.26H653.188C655.372 135.26 657.034 135.745 658.172 136.716C659.33 137.687 659.908 139.105 659.908 140.972C659.908 142.521 659.47 143.781 658.592 144.752C657.715 145.704 656.464 146.311 654.84 146.572C655.326 146.703 655.764 146.936 656.156 147.272C656.548 147.608 656.931 148.075 657.304 148.672L660.188 153.208ZM652.852 144.528C654.308 144.528 655.382 144.248 656.072 143.688C656.782 143.109 657.136 142.223 657.136 141.028C657.136 139.833 656.791 138.965 656.1 138.424C655.41 137.864 654.327 137.584 652.852 137.584H647.616V144.528H652.852ZM678.96 135.12C679.371 135.12 679.698 135.26 679.94 135.54C680.202 135.801 680.332 136.147 680.332 136.576V153.684C680.332 154.113 680.202 154.468 679.94 154.748C679.679 155.009 679.343 155.14 678.932 155.14C678.447 155.14 678.074 154.953 677.812 154.58L666.836 140.104V153.684C666.836 154.113 666.706 154.468 666.444 154.748C666.202 155.009 665.875 155.14 665.464 155.14C665.054 155.14 664.727 155.009 664.484 154.748C664.242 154.487 664.12 154.132 664.12 153.684V136.576C664.12 136.147 664.251 135.801 664.512 135.54C664.774 135.26 665.11 135.12 665.52 135.12C666.006 135.12 666.379 135.307 666.64 135.68L677.616 150.184V136.576C677.616 136.147 677.738 135.801 677.98 135.54C678.223 135.26 678.55 135.12 678.96 135.12ZM702.345 153.32C702.438 153.544 702.485 153.731 702.485 153.88C702.485 154.235 702.335 154.533 702.037 154.776C701.757 155.019 701.439 155.14 701.085 155.14C700.842 155.14 700.609 155.075 700.385 154.944C700.179 154.795 700.021 154.589 699.909 154.328L698.061 150.128H687.813L685.965 154.328C685.853 154.589 685.685 154.795 685.461 154.944C685.237 155.075 685.003 155.14 684.761 155.14C684.387 155.14 684.051 155.019 683.753 154.776C683.473 154.533 683.333 154.235 683.333 153.88C683.333 153.731 683.379 153.544 683.473 153.32L691.369 136.044C691.499 135.745 691.705 135.512 691.985 135.344C692.283 135.176 692.591 135.092 692.909 135.092C693.226 135.092 693.525 135.176 693.805 135.344C694.103 135.512 694.318 135.745 694.449 136.044L702.345 153.32ZM697.053 147.832L692.937 138.564L688.849 147.832H697.053ZM711.824 155.224C710.405 155.224 709.052 155.028 707.764 154.636C706.495 154.244 705.477 153.703 704.712 153.012C704.357 152.713 704.18 152.331 704.18 151.864C704.18 151.528 704.273 151.248 704.46 151.024C704.647 150.781 704.871 150.66 705.132 150.66C705.393 150.66 705.711 150.781 706.084 151.024C707.745 152.256 709.64 152.872 711.768 152.872C713.261 152.872 714.409 152.592 715.212 152.032C716.015 151.472 716.416 150.669 716.416 149.624C716.416 148.803 716.043 148.187 715.296 147.776C714.549 147.365 713.355 146.973 711.712 146.6C710.144 146.264 708.856 145.881 707.848 145.452C706.84 145.023 706.047 144.444 705.468 143.716C704.908 142.969 704.628 142.027 704.628 140.888C704.628 139.749 704.936 138.741 705.552 137.864C706.187 136.968 707.064 136.277 708.184 135.792C709.304 135.288 710.583 135.036 712.02 135.036C713.345 135.036 714.568 135.223 715.688 135.596C716.808 135.969 717.76 136.52 718.544 137.248C718.917 137.565 719.104 137.948 719.104 138.396C719.104 138.713 719.001 138.993 718.796 139.236C718.609 139.479 718.385 139.6 718.124 139.6C717.881 139.6 717.573 139.479 717.2 139.236C716.341 138.583 715.529 138.116 714.764 137.836C714.017 137.537 713.112 137.388 712.048 137.388C710.611 137.388 709.491 137.687 708.688 138.284C707.885 138.863 707.484 139.675 707.484 140.72C707.484 141.616 707.839 142.297 708.548 142.764C709.257 143.212 710.396 143.623 711.964 143.996C713.607 144.369 714.932 144.761 715.94 145.172C716.967 145.564 717.779 146.115 718.376 146.824C718.992 147.515 719.3 148.411 719.3 149.512C719.3 150.632 718.983 151.631 718.348 152.508C717.732 153.367 716.855 154.039 715.716 154.524C714.596 154.991 713.299 155.224 711.824 155.224Z" fill="white"/>
<rect x="211" y="109" width="514" height="2" fill="white"/>
</svg>
